<?xml version="1.0" encoding="utf-8"?>
<!DOCTYPE svg PUBLIC "-//W3C//DTD SVG 20010904//EN" "http://www.w3.org/TR/2001/REC-SVG-20010904/DTD/svg10.dtd">
<svg version="1.0" xmlns="http://www.w3.org/2000/svg" width="467px" height="519px" viewBox="0 0 467 519" preserveAspectRatio="xMidYMid meet">
   <defs>
      <linearGradient id="lg0" gradientUnits="userSpaceOnUse" x1="50.0%" y1="100.0%" x2="50.0%" y2="0.0%">
         <stop offset="0%" style="stop-color:rgb(255,255,255);"></stop>
         <stop offset="100%" style="stop-color:rgb(0,170,0);"></stop>
      </linearGradient>
   </defs>
 <g fill="#000000">
  <path fill="url(#lg0)" d="M206.3 517.1 c-5.3 -1.4 -11.9 -5.8 -16 -10.8 -3.6 -4.4 -16 -21.9 -41 -57.8 -20.4 -29.5 -22.2 -32.7 -23 -42.6 -1.2 -13.8 3.8 -19.9 38.1 -47.4 21.6 -17.4 27.9 -24.2 25.6 -27.8 -0.6 -1.1 -1.8 -3.7 -2.6 -5.8 -0.7 -2.2 -7.1 -11.9 -14.2 -21.7 -7.1 -9.7 -14.1 -19.6 -15.7 -21.9 -1.5 -2.4 -3.2 -4.3 -3.7 -4.3 -0.5 0 -4.1 2.4 -8.1 5.3 -12.7 9.4 -43 29.3 -49.4 32.6 -22.9 11.5 -30.8 9.9 -45.8 -8.9 -8.9 -11.2 -44.9 -62.3 -46.8 -66.4 -4.1 -9 -2.3 -19.9 4.5 -26.3 6.7 -6.2 18.2 -8.1 26.4 -4.4 5.6 2.6 10.4 8.5 27.9 34.3 18.3 27.1 16.7 26.3 31.5 16.3 15.9 -10.7 32 -22.1 32 -22.7 0 -0.4 -14.9 -22 -33.2 -48 -18.2 -26 -34.8 -50.4 -36.9 -54.3 -5 -9.4 -7.1 -18 -7.1 -29.1 0 -10.6 1.5 -18.6 4.9 -26.5 l2.5 -5.7 -14.7 -14.3 c-14.3 -14 -17.3 -17.5 -16.1 -18.7 0.9 -0.8 5 2.4 20.8 16.1 l13.8 11.9 2.7 -3.4 c1.5 -1.8 4.2 -4.7 6 -6.5 1.8 -1.7 3.3 -3.4 3.3 -3.6 0 -0.3 -5.2 -8.5 -11.5 -18.2 -10.9 -16.7 -12.8 -20.5 -10.5 -20.5 0.5 0 6.6 7.5 13.6 16.7 7 9.3 13 17.1 13.4 17.6 0.3 0.4 3.6 -0.6 7.3 -2.3 3.7 -1.6 7.3 -3 8.2 -3 0.8 0 1.5 -0.2 1.5 -0.5 0 -0.3 -2.9 -8.5 -6.5 -18.2 -6.7 -18.1 -8.9 -25.3 -7.5 -25.3 1 0 7 11.5 10.5 20 1.4 3.6 4.2 9.9 6.1 14 l3.5 7.5 8.3 -0.3 c10.3 -0.5 21.8 2.2 32.5 7.4 8.9 4.4 18.1 13.1 26.6 25.4 3.3 4.7 14.8 21.3 25.7 37 31.6 45.8 36.2 52.1 37.5 51.6 0.6 -0.3 4.5 -2.9 8.5 -5.9 13 -9.6 44.3 -30.4 50.4 -33.5 7.1 -3.6 15.6 -6.2 20.1 -6.2 6.5 0 14.9 5.4 22.1 14.4 7.6 9.4 45.9 63.1 48.2 67.6 2.7 5.3 2.7 15.6 0.1 20.8 -4.1 8 -11.6 12.4 -21.6 12.6 -4.8 0.1 -6.9 -0.4 -10.5 -2.6 -6.1 -3.6 -6.9 -4.6 -21.4 -26.2 -14 -20.8 -21 -30.1 -23.3 -31 -0.8 -0.3 -2.7 0.3 -4.1 1.4 -1.5 1.2 -4.9 3.6 -7.7 5.4 -6.1 4 -31.7 21.6 -32.9 22.7 -0.5 0.4 1.6 4.3 4.6 8.6 3 4.3 11.2 16.1 18.3 26.3 7.1 10.2 15 20.9 17.6 23.8 2.6 2.9 6.5 8.8 8.8 13.1 2.3 4.2 8.1 12.8 12.8 19.1 4.7 6.3 13.3 18.6 19 27.2 5.7 8.7 12.1 17.5 14.4 19.8 l4 4 3.2 -1.6 c1.8 -0.9 6.8 -4.7 11.2 -8.4 11.6 -9.8 36.8 -26.9 45.5 -31 18.9 -8.7 36.7 -2.9 45.1 14.8 2.9 6 3.1 7.1 2.6 13.6 -0.7 9.3 -3.3 15 -9.8 21.2 -9.6 9.1 -76.7 55.1 -88.7 60.7 -8.9 4.1 -15.7 4.6 -23.7 1.6 -5.2 -1.9 -7.7 -3.9 -18.1 -14.3 -12.1 -12.1 -21.9 -24.4 -26.5 -33.1 -1.3 -2.5 -3.3 -4.8 -4.4 -5.1 -1.7 -0.6 -3.8 -2.1 -9.2 -6.4 -2 -1.7 -16 5.8 -27.3 14.5 -19.5 15.1 -33.3 24.3 -53.5 35.5 -3.3 1.8 -6.2 3.5 -6.4 3.7 -0.2 0.1 0.3 1.1 1.2 2.1 1 1 1.7 2.9 1.7 4.1 0 1.3 1.7 4.2 3.8 6.6 7.8 8.8 32 43.9 35.2 51 4.9 11 3.5 24.1 -3.6 32.3 -6.5 7.6 -21 12.6 -30.1 10.3z m-20.3 -306.1 c2.4 -2.4 2.6 -7 0.5 -10.9 -2.3 -4.6 -23.4 -34.3 -25.3 -35.7 -0.9 -0.8 -3.4 -1.4 -5.4 -1.4 -2.8 0 -4.1 0.6 -5.7 2.6 -1.2 1.5 -2.1 3.5 -2.1 4.4 0 2.6 2.6 8.4 5.3 11.6 1.3 1.6 6.5 8.8 11.6 15.9 5.1 7.2 10 13.6 10.9 14.3 2.4 1.9 7.9 1.5 10.2 -0.8z m-71.6 -47.4 c13.4 -5.6 9.2 -25.6 -5.4 -25.6 -13.6 0 -17.9 18.9 -5.7 24.9 4.9 2.5 6.6 2.6 11.1 0.7z m44 -31 c13.4 -5.6 9.2 -25.6 -5.4 -25.6 -13.6 0 -17.9 18.9 -5.7 24.9 4.9 2.5 6.6 2.6 11.1 0.7z"/>
 </g>
</svg>